<?xml version="1.0" encoding="UTF-8"?>
<svg id="símbolos" xmlns="http://www.w3.org/2000/svg" viewBox="0 0 1080 1080">
  <defs>
    <style>
      .cls-1 {
        fill: #7639b4;
      }
    </style>
  </defs>
  <g>
    <g>
      <g>
        <path class="cls-1" d="M346.82,779.31c-14.03,0-27.69-4.32-39.39-12.6-14.84-10.5-24.8-26.18-28.05-44.14l-47.27-261.24c-4.25-23.49,4.1-47.97,21.78-63.89l192.86-173.55c19.62-17.66,46.98-22.49,71.41-12.61l245.46,99.31c22.18,8.98,38.34,29.3,42.17,53.05l42.31,262.4c6.03,37.42-19.29,72.96-56.44,79.22l-433.35,73.09c-3.83.65-7.67.97-11.48.97ZM492.46,235.66c-9.43,0-18.69,3.46-26.04,10.08l-192.86,173.55c-10.17,9.15-14.97,23.25-12.52,36.8l47.27,261.24c3.84,21.2,24.07,35.56,45.1,32.02l433.35-73.09c21.28-3.59,35.77-24.02,32.3-45.55l-42.31-262.4c-2.2-13.66-11.46-25.33-24.17-30.47l-245.46-99.31c-4.77-1.93-9.75-2.87-14.67-2.87Z"/>
        <path class="cls-1" d="M346.82,780.59c-14.39,0-28.27-4.44-40.13-12.84-15.11-10.7-25.26-26.67-28.57-44.96l-47.28-261.24c-4.33-23.93,4.17-48.86,22.19-65.07l192.86-173.55c19.99-17.99,47.86-22.91,72.74-12.84l245.46,99.31c22.6,9.14,39.06,29.85,42.95,54.04l42.31,262.4c6.15,38.11-19.64,74.31-57.49,80.69l-433.35,73.09c-3.87.65-7.81.98-11.7.98ZM492.39,207.5c-16.23,0-32.14,5.95-44.79,17.33l-192.86,173.55c-17.36,15.62-25.55,39.65-21.38,62.71l47.28,261.24c3.19,17.63,12.97,33.01,27.53,43.32,11.43,8.09,24.79,12.37,38.65,12.37,3.75,0,7.54-.32,11.27-.95l433.35-73.09c36.46-6.15,61.31-41.03,55.39-77.76l-42.31-262.4c-3.76-23.31-19.62-43.26-41.39-52.07l-245.46-99.31c-8.23-3.33-16.8-4.96-25.29-4.96ZM347.01,751.17c-19.2,0-36.39-13.96-39.95-33.61l-47.28-261.24c-2.53-13.98,2.42-28.53,12.92-37.98l192.86-173.55c7.46-6.71,17.01-10.41,26.9-10.41,5.18,0,10.28,1,15.15,2.97l245.46,99.31c13.12,5.31,22.68,17.36,24.95,31.46l42.31,262.4c3.58,22.22-11.38,43.31-33.35,47.01l-433.35,73.09c-2.22.37-4.43.56-6.62.56ZM492.46,236.94c-9.25,0-18.2,3.46-25.19,9.75l-192.86,173.55c-9.84,8.86-14.49,22.51-12.11,35.62l47.28,261.24c3.71,20.52,23.27,34.42,43.63,30.98l433.35-73.09c20.59-3.47,34.61-23.25,31.25-44.08l-42.31-262.4c-2.13-13.22-11.09-24.52-23.39-29.49l-245.46-99.31c-4.56-1.84-9.33-2.78-14.19-2.78Z"/>
      </g>
      <g>
        <path class="cls-1" d="M346.82,783.17c-14.93,0-29.32-4.6-41.62-13.31-15.67-11.09-26.19-27.64-29.62-46.6l-47.27-261.24c-4.49-24.8,4.33-50.64,23-67.45l192.86-173.55c20.73-18.65,49.64-23.75,75.44-13.32l245.46,99.31c23.43,9.48,40.49,30.94,44.54,56.02l42.31,262.4c6.37,39.5-20.37,77.03-59.61,83.65l-433.35,73.08c-4.01.68-8.09,1.02-12.13,1.02ZM492.4,210.09c-15.6,0-30.91,5.72-43.07,16.66l-192.86,173.55c-16.7,15.03-24.58,38.15-20.57,60.33l47.27,261.24c3.07,16.96,12.48,31.76,26.48,41.68,10.99,7.78,23.84,11.89,37.16,11.89,3.61,0,7.26-.31,10.84-.91l433.35-73.08c35.07-5.91,58.97-39.47,53.27-74.8l-42.31-262.4c-3.62-22.42-18.87-41.62-39.81-50.09l-245.46-99.31c-7.91-3.2-16.15-4.76-24.31-4.76ZM347.01,753.75c-20.42,0-38.71-14.84-42.49-35.73l-47.28-261.24c-2.69-14.85,2.58-30.31,13.74-40.35l192.86-173.55c7.93-7.14,18.1-11.07,28.63-11.07,5.52,0,10.94,1.06,16.12,3.16l245.46,99.31c13.95,5.64,24.12,18.46,26.54,33.44l42.31,262.4c3.81,23.61-12.11,46.03-35.47,49.97l-433.35,73.08c-2.37.4-4.72.59-7.05.59ZM492.46,239.52c-8.62,0-16.95,3.23-23.46,9.09l-192.86,173.55c-9.19,8.27-13.52,21-11.3,33.24l47.28,261.24c3.46,19.13,21.7,32.1,40.66,28.9l433.35-73.08c19.2-3.24,32.27-21.69,29.13-41.13l-42.31-262.4c-1.99-12.33-10.35-22.87-21.81-27.51l-245.46-99.31c-4.25-1.72-8.7-2.59-13.22-2.59Z"/>
        <path class="cls-1" d="M346.82,784.45c-15.19,0-29.84-4.68-42.36-13.55-15.94-11.29-26.65-28.13-30.14-47.42l-47.27-261.24c-4.57-25.23,4.4-51.53,23.41-68.63l192.86-173.55c21.09-18.98,50.51-24.18,76.77-13.55l245.46,99.31c23.84,9.65,41.21,31.49,45.32,57l42.31,262.4c6.48,40.2-20.73,78.38-60.66,85.11l-433.35,73.09c-4.08.69-8.23,1.04-12.34,1.04ZM492.38,203.64c-17.16,0-33.99,6.29-47.36,18.32l-192.85,173.55c-18.35,16.51-27.01,41.9-22.6,66.27l47.27,261.24c3.37,18.63,13.71,34.89,29.1,45.79,12.08,8.55,26.22,13.08,40.88,13.08,3.96,0,7.97-.34,11.91-1l433.35-73.09c38.55-6.5,64.82-43.37,58.56-82.18l-42.31-262.4c-3.97-24.63-20.74-45.72-43.75-55.03l-245.46-99.31c-8.7-3.52-17.77-5.24-26.74-5.24ZM346.82,776.73c-13.58,0-26.69-4.19-37.9-12.13-14.28-10.11-23.87-25.2-27-42.5l-47.27-261.24c-4.09-22.62,3.94-46.19,20.97-61.51l192.86-173.55c12.18-10.96,27.78-16.99,43.92-16.99,8.48,0,16.82,1.63,24.79,4.86l245.46,99.31c21.35,8.64,36.9,28.21,40.59,51.07l42.3,262.4c5.81,36.02-18.56,70.24-54.32,76.27l-433.35,73.09c-3.66.62-7.38.93-11.05.93ZM492.4,211.37c-15.52,0-30.51,5.8-42.21,16.33l-192.86,173.55c-16.37,14.74-24.1,37.4-20.16,59.16l47.27,261.24c3.01,16.63,12.23,31.14,25.96,40.86,13.69,9.69,30.52,13.55,47.05,10.76l433.35-73.09c34.38-5.8,57.81-38.7,52.22-73.34l-42.3-262.4c-3.55-21.98-18.5-40.8-39.03-49.1l-245.46-99.31c-7.66-3.1-15.68-4.67-23.83-4.67ZM347.01,755.03c-21.49,0-39.89-15.47-43.75-36.78l-47.27-261.24c-2.77-15.28,2.65-31.19,14.14-41.53l192.86-173.55c8.17-7.35,18.64-11.4,29.48-11.4,5.68,0,11.27,1.09,16.6,3.25l245.46,99.31c14.36,5.81,24.83,19,27.32,34.42l42.3,262.4c3.92,24.3-12.46,47.38-36.52,51.44l-433.35,73.09c-2.4.4-4.84.61-7.26.61ZM492.46,233.08c-10.21,0-20.07,3.82-27.77,10.74l-192.85,173.55c-10.83,9.75-15.94,24.76-13.33,39.17l47.27,261.24c3.63,20.09,20.97,34.68,41.23,34.68,2.28,0,4.58-.19,6.84-.57l433.35-73.09c22.67-3.82,38.11-25.58,34.42-48.5l-42.3-262.4c-2.35-14.54-12.22-26.98-25.76-32.46l-245.46-99.31c-5.02-2.03-10.28-3.06-15.64-3.06ZM347,747.31c-17.36,0-32.92-12.64-36.14-30.44l-47.28-261.24c-2.29-12.67,2.19-25.86,11.7-34.42l192.86-173.55c6.75-6.07,15.38-9.42,24.32-9.42,4.68,0,9.29.9,13.7,2.69l245.46,99.31c11.88,4.8,20.53,15.72,22.59,28.49l42.31,262.4c3.25,20.13-10.29,39.24-30.18,42.59l-433.35,73.09c-2.01.34-4.01.5-5.99.5ZM492.46,240.8c-8.3,0-16.33,3.11-22.61,8.76l-192.86,173.55c-8.86,7.97-13.03,20.26-10.9,32.06l47.28,261.24c3.34,18.45,20.9,30.95,39.18,27.86l433.35-73.09c18.51-3.12,31.1-20.91,28.08-39.66l-42.31-262.4c-1.92-11.89-9.98-22.06-21.03-26.53l-245.46-99.31c-4.1-1.66-8.38-2.5-12.74-2.5Z"/>
      </g>
    </g>
    <g>
      <g>
        <path class="cls-1" d="M346.82,784.21c-15.14,0-29.74-4.67-42.22-13.5-15.89-11.25-26.56-28.04-30.04-47.27l-47.27-261.24c-4.55-25.15,4.39-51.36,23.33-68.41l192.86-173.55c21.02-18.92,50.35-24.1,76.52-13.51l245.46,99.31c23.76,9.62,41.07,31.39,45.17,56.82l42.31,262.4c6.46,40.07-20.66,78.12-60.47,84.84l-433.35,73.09c-4.07.69-8.21,1.03-12.3,1.03ZM492.4,211.13c-15.35,0-30.41,5.63-42.37,16.4l-192.86,173.55c-16.44,14.79-24.19,37.54-20.24,59.38l47.27,261.24c3.02,16.69,12.28,31.26,26.06,41.01,10.81,7.65,23.45,11.7,36.56,11.7,3.55,0,7.14-.3,10.67-.9l433.35-73.09c34.51-5.82,58.02-38.84,52.42-73.61l-42.31-262.4c-3.56-22.07-18.57-40.95-39.17-49.29l-245.46-99.31c-7.78-3.15-15.89-4.69-23.92-4.69ZM347.01,754.79c-20.91,0-39.64-15.19-43.52-36.58l-47.27-261.24c-2.75-15.2,2.64-31.03,14.06-41.31l192.86-173.55c8.13-7.31,18.54-11.34,29.32-11.34,5.65,0,11.2,1.09,16.51,3.23l245.46,99.31c14.29,5.78,24.7,18.9,27.17,34.24l42.31,262.4c3.9,24.17-12.4,47.12-36.32,51.16l-433.35,73.08c-2.42.41-4.84.61-7.22.61ZM492.46,240.56c-8.36,0-16.44,3.13-22.76,8.82l-192.86,173.55c-8.92,8.03-13.13,20.4-10.98,32.28l47.27,261.24c3.02,16.68,17.6,28.53,33.86,28.53,1.85,0,3.72-.15,5.6-.47l433.35-73.09c18.64-3.14,31.32-21.06,28.28-39.93l-42.31-262.4c-1.93-11.97-10.04-22.21-21.17-26.71l-245.46-99.31c-4.13-1.67-8.45-2.52-12.83-2.52Z"/>
        <path class="cls-1" d="M346.82,785.49c-15.41,0-30.26-4.75-42.96-13.74-16.17-11.45-27.02-28.52-30.56-48.09l-47.28-261.24c-4.63-25.58,4.46-52.24,23.73-69.59l192.86-173.55c21.39-19.25,51.22-24.52,77.86-13.74l245.46,99.31c24.18,9.78,41.79,31.93,45.96,57.8l42.31,262.4c6.57,40.76-21.02,79.47-61.51,86.3l-433.35,73.09c-4.14.7-8.35,1.05-12.51,1.05ZM492.38,202.6c-17.41,0-34.49,6.38-48.06,18.59l-192.86,173.55c-18.61,16.75-27.4,42.51-22.92,67.23l47.28,261.24c3.42,18.9,13.9,35.4,29.52,46.45,12.26,8.68,26.61,13.27,41.48,13.27,4.02,0,8.09-.34,12.09-1.02l433.35-73.09c39.11-6.6,65.76-44,59.42-83.37l-42.31-262.4c-4.03-24.99-21.04-46.38-44.39-55.83l-245.46-99.31c-8.83-3.57-18.03-5.32-27.13-5.32ZM346.82,775.69c-13.37,0-26.27-4.13-37.3-11.94-14.06-9.95-23.5-24.81-26.58-41.83l-47.28-261.24c-4.03-22.27,3.88-45.47,20.65-60.55l192.86-173.55c11.98-10.78,27.34-16.72,43.23-16.72,8.35,0,16.56,1.61,24.4,4.78l245.46,99.31c21.02,8.5,36.33,27.77,39.96,50.27l42.31,262.4c5.72,35.46-18.27,69.14-53.47,75.08l-433.35,73.09c-3.6.61-7.26.91-10.88.91ZM492.4,212.41c-15.26,0-30.01,5.71-41.52,16.07l-192.86,173.55c-16.11,14.5-23.71,36.79-19.84,58.2l47.28,261.24c2.96,16.36,12.03,30.63,25.54,40.2,13.46,9.53,30.02,13.32,46.27,10.59l433.35-73.09c33.82-5.7,56.86-38.07,51.37-72.15l-42.31-262.4c-3.49-21.63-18.2-40.14-38.39-48.31l-245.46-99.31c-7.53-3.05-15.42-4.59-23.44-4.59ZM347.01,756.07c-22,0-40.83-15.83-44.77-37.64l-47.28-261.24c-2.83-15.63,2.71-31.92,14.47-42.49l192.86-173.55c8.36-7.52,19.08-11.67,30.17-11.67,5.82,0,11.53,1.12,16.99,3.33l245.46,99.31c14.7,5.95,25.41,19.44,27.96,35.22l42.31,262.4c4.01,24.87-12.76,48.47-37.37,52.63l-433.35,73.09c-2.45.41-4.95.62-7.43.62ZM492.46,232.04c-10.46,0-20.57,3.91-28.47,11.01l-192.85,173.55c-11.1,9.99-16.33,25.36-13.66,40.13l47.28,261.24c3.72,20.59,21.5,35.53,42.25,35.53,2.34,0,4.69-.2,7.01-.59l433.35-73.09c23.24-3.92,39.06-26.21,35.27-49.69l-42.31-262.4c-2.4-14.9-12.51-27.64-26.39-33.25l-245.46-99.31c-5.15-2.08-10.54-3.14-16.03-3.14ZM347.02,746.27h-.02c-17.25,0-32.02-12.44-35.12-29.58l-47.28-261.24c-2.23-12.32,2.13-25.14,11.38-33.46l192.86-173.55c6.56-5.9,14.94-9.15,23.62-9.15,4.55,0,9.03.88,13.31,2.61l245.46,99.31c11.54,4.67,19.95,15.28,21.95,27.69l42.31,262.4c3.15,19.57-10,38.14-29.33,41.4l-433.35,73.09c-1.92.32-3.86.49-5.79.49ZM492.46,241.84c-8.04,0-15.82,3.02-21.91,8.49l-192.86,173.55c-8.59,7.73-12.64,19.65-10.57,31.1l47.28,261.24c2.88,15.92,16.59,27.47,32.6,27.48h.02c1.78,0,3.59-.15,5.37-.45l433.35-73.09c17.94-3.02,30.16-20.28,27.23-38.47l-42.31-262.4c-1.86-11.54-9.67-21.39-20.39-25.73l-245.46-99.31c-3.98-1.61-8.13-2.42-12.35-2.42Z"/>
      </g>
      <g>
        <path class="cls-1" d="M346.82,788.07c-15.95,0-31.32-4.91-44.45-14.21-16.72-11.84-27.95-29.5-31.61-49.73l-47.27-261.24c-4.79-26.46,4.62-54.03,24.54-71.96l192.86-173.55c22.13-19.92,53-25.36,80.56-14.22l245.46,99.31c25.01,10.12,43.22,33.02,47.54,59.78l42.31,262.4c6.8,42.15-21.75,82.19-63.63,89.26l-433.35,73.08c-4.28.72-8.63,1.09-12.94,1.09ZM492.39,205.18c-16.79,0-33.25,6.15-46.33,17.93l-192.86,173.55c-17.95,16.16-26.43,41.01-22.11,64.85l47.27,261.24c3.3,18.23,13.41,34.14,28.47,44.81,11.82,8.37,25.65,12.79,39.99,12.79,3.88,0,7.8-.33,11.66-.98l433.35-73.08c37.72-6.36,63.42-42.43,57.3-80.42l-42.31-262.4c-3.89-24.1-20.29-44.74-42.81-53.85l-245.46-99.31c-8.51-3.44-17.38-5.13-26.16-5.13ZM346.82,778.27c-13.91,0-27.32-4.29-38.79-12.41-14.62-10.35-24.43-25.79-27.63-43.48l-47.28-261.24c-4.19-23.14,4.03-47.25,21.46-62.93l192.86-173.55c12.46-11.21,28.43-17.39,44.96-17.39,8.68,0,17.21,1.67,25.36,4.97l245.46,99.31c21.85,8.84,37.76,28.86,41.54,52.25l42.31,262.4c5.94,36.86-19,71.86-55.59,78.03l-433.35,73.08c-3.74.63-7.55.95-11.31.95ZM492.4,214.99c-14.62,0-28.75,5.47-39.79,15.4l-192.86,173.55c-15.45,13.9-22.74,35.29-19.02,55.82l47.28,261.24c2.84,15.69,11.54,29.38,24.49,38.55,10.16,7.19,22.03,10.99,34.33,10.99,3.34,0,6.71-.28,10.03-.84l433.35-73.08c32.43-5.47,54.52-36.51,49.25-69.19l-42.31-262.4c-3.34-20.74-17.45-38.49-36.81-46.32l-245.46-99.31c-7.23-2.92-14.79-4.41-22.47-4.41ZM347.01,758.65c-23.25,0-43.15-16.72-47.31-39.76l-47.28-261.24c-2.99-16.51,2.87-33.7,15.28-44.87l192.86-173.55c8.84-7.95,20.17-12.33,31.9-12.33,6.15,0,12.19,1.18,17.95,3.51l245.46,99.31c15.53,6.28,26.85,20.54,29.54,37.2l42.31,262.4c4.23,26.26-13.48,51.19-39.49,55.58l-433.35,73.08c-2.6.44-5.24.66-7.86.66ZM492.46,234.62c-9.83,0-19.32,3.68-26.74,10.35l-192.86,173.55c-10.44,9.39-15.36,23.86-12.85,37.76l47.28,261.24c3.5,19.36,20.2,33.41,39.72,33.41,2.19,0,4.41-.19,6.58-.55l433.35-73.08c21.84-3.68,36.72-24.65,33.16-46.74l-42.31-262.4c-2.26-14.01-11.77-26-24.81-31.27l-245.46-99.31c-4.84-1.96-9.91-2.95-15.06-2.95ZM347,748.85c-18.5,0-34.34-13.33-37.66-31.7l-47.28-261.24c-2.39-13.19,2.28-26.92,12.19-35.84l192.86-173.55c7.03-6.33,16.03-9.81,25.35-9.81,4.88,0,9.69.94,14.28,2.8l245.46,99.31c12.37,5.01,21.39,16.38,23.54,29.67l42.31,262.4c3.38,20.96-10.73,40.86-31.45,44.36l-433.35,73.08c-2.06.35-4.16.52-6.24.52ZM492.46,244.42c-7.4,0-14.57,2.78-20.18,7.83l-192.86,173.55c-7.93,7.14-11.67,18.15-9.76,28.72l47.28,261.24c2.66,14.69,15.3,25.35,30.06,25.35,1.65,0,3.32-.14,4.96-.42l433.35-73.08c16.55-2.79,27.82-18.72,25.11-35.51l-42.31-262.4c-1.72-10.65-8.92-19.75-18.81-23.75l-245.46-99.31c-3.67-1.48-7.5-2.24-11.38-2.24Z"/>
        <path class="cls-1" d="M346.82,789.35c-16.21,0-31.84-5-45.19-14.45-17-12.04-28.41-29.99-32.13-50.55l-47.27-261.24c-4.87-26.89,4.69-54.91,24.95-73.14l192.86-173.55c22.5-20.24,53.88-25.78,81.89-14.45l245.46,99.31c25.42,10.29,43.94,33.57,48.32,60.76l42.31,262.4c6.91,42.85-22.11,83.54-64.68,90.72l-433.35,73.09c-4.34.73-8.77,1.1-13.16,1.1ZM492.37,198.73c-18.35,0-36.34,6.73-50.63,19.58l-192.85,173.55c-19.6,17.64-28.85,44.76-24.14,70.79l47.27,261.24c3.6,19.9,14.64,37.27,31.09,48.92,12.91,9.14,28.03,13.98,43.71,13.98,4.24,0,8.53-.36,12.73-1.07l433.35-73.09c41.19-6.95,69.27-46.33,62.58-87.79l-42.31-262.4c-4.24-26.32-22.16-48.84-46.76-58.8l-245.46-99.31c-9.3-3.76-19-5.6-28.59-5.6ZM346.82,781.63c-14.6,0-28.69-4.5-40.73-13.03-15.34-10.86-25.64-27.06-29-45.62l-47.27-261.24c-4.39-24.28,4.23-49.58,22.52-66.03l192.86-173.55c13.08-11.77,29.84-18.25,47.19-18.25h0c9.11,0,18.08,1.76,26.64,5.22l245.46,99.31c22.93,9.28,39.64,30.29,43.59,54.83l42.31,262.4c6.24,38.67-19.94,75.4-58.35,81.88l-433.35,73.08c-3.92.66-7.92,1-11.87,1ZM492.4,208.55c-16.22,0-31.88,6.06-44.1,17.06l-192.86,173.55c-17.1,15.38-25.16,39.05-21.05,61.75l47.28,261.24c3.14,17.36,12.77,32.51,27.11,42.66,11.25,7.96,24.41,12.17,38.05,12.17,3.7,0,7.43-.31,11.1-.93l433.35-73.08c35.9-6.05,60.36-40.4,54.54-76.57l-42.31-262.4c-3.7-22.95-19.32-42.6-40.75-51.27l-245.46-99.31c-8-3.24-16.37-4.88-24.89-4.88ZM346.82,771.83c-12.57,0-24.69-3.88-35.07-11.23-13.23-9.37-22.11-23.35-25.01-39.37l-47.28-261.24c-3.79-20.96,3.65-42.8,19.43-57l192.86-173.55c11.27-10.15,25.71-15.73,40.65-15.73,7.85,0,15.57,1.51,22.95,4.5l245.46,99.31c19.77,8,34.18,26.13,37.59,47.31l42.31,262.4c5.38,33.37-17.18,65.07-50.3,70.66l-433.35,73.09c-3.38.57-6.83.86-10.24.86ZM492.4,216.27c-14.3,0-28.13,5.35-38.94,15.07l-192.86,173.55c-15.12,13.61-22.26,34.54-18.62,54.64l47.28,261.24c2.78,15.36,11.29,28.76,23.97,37.73,9.94,7.04,21.55,10.76,33.59,10.76,3.27,0,6.57-.28,9.81-.82l433.35-73.09c31.73-5.35,53.36-35.73,48.2-67.72l-42.31-262.4c-3.27-20.3-17.08-37.68-36.03-45.34l-245.46-99.31c-7.08-2.86-14.47-4.31-21.99-4.31ZM347.01,759.93c-23.87,0-44.29-17.16-48.57-40.81l-47.27-261.24c-3.07-16.94,2.94-34.58,15.68-46.05l192.86-173.55c9.07-8.16,20.71-12.66,32.76-12.66,6.31,0,12.51,1.21,18.43,3.61l245.46,99.31c15.94,6.45,27.56,21.08,30.32,38.18l42.3,262.4c4.35,26.95-13.84,52.54-40.54,57.05l-433.35,73.09c-2.66.45-5.38.68-8.08.68ZM492.46,228.18c-11.42,0-22.45,4.26-31.05,12l-192.85,173.55c-12.09,10.88-17.79,27.62-14.88,43.69l47.27,261.24c4.06,22.43,23.43,38.71,46.05,38.71,2.55,0,5.13-.22,7.65-.64l433.35-73.09c25.32-4.27,42.56-28.55,38.44-54.12l-42.3-262.4c-2.62-16.22-13.64-30.1-28.76-36.22l-245.46-99.31c-5.61-2.27-11.49-3.42-17.47-3.42ZM347.01,752.21c-20.13,0-37.36-14.49-40.98-34.46l-47.27-261.24c-2.59-14.33,2.49-29.25,13.25-38.94l192.86-173.55c7.65-6.88,17.45-10.68,27.6-10.68,5.32,0,10.54,1.02,15.54,3.04l245.46,99.31c13.45,5.44,23.26,17.8,25.59,32.25l42.31,262.4c3.67,22.78-11.67,44.41-34.21,48.2l-433.34,73.09c-2.25.38-4.53.57-6.79.57ZM492.46,237.98c-9,0-17.69,3.37-24.49,9.49l-192.86,173.55c-9.58,8.62-14.1,21.9-11.79,34.66l47.27,261.24c3.21,17.76,18.52,30.64,36.4,30.65,2.01,0,4.04-.17,6.03-.51l433.35-73.09c20.03-3.38,33.66-22.62,30.4-42.89l-42.31-262.4c-2.07-12.86-10.79-23.86-22.75-28.69l-245.46-99.31c-4.44-1.8-9.08-2.71-13.8-2.71ZM347,742.41c-15.38,0-28.55-11.11-31.32-26.41l-47.28-261.24c-1.99-11.01,1.9-22.47,10.16-29.9l192.85-173.55c5.85-5.26,13.32-8.16,21.04-8.16,4.05,0,8.04.78,11.86,2.33l245.46,99.31c10.3,4.16,17.8,13.64,19.59,24.73l42.31,262.4c2.82,17.48-8.92,34.07-26.16,36.98l-433.34,73.08c-1.72.29-3.46.43-5.17.43ZM492.46,245.7c-7.09,0-13.95,2.66-19.33,7.5l-192.86,173.55c-7.61,6.85-11.19,17.4-9.36,27.55l47.28,261.24c2.55,14.08,14.66,24.3,28.8,24.3,1.57,0,3.17-.13,4.75-.4l433.34-73.08c15.86-2.68,26.66-17.95,24.06-34.05l-42.31-262.4c-1.65-10.21-8.55-18.93-18.03-22.76l-245.46-99.31c-3.51-1.42-7.18-2.14-10.9-2.14Z"/>
      </g>
    </g>
  </g>
  <g>
    <g>
      <g>
        <path class="cls-1" d="M510.77,874.51c-4.92,0-9.88-.73-14.87-2.4-6.01-2.01-9.96-4.68-15.44-8.38-20.32-13.73-32.36-30.3-37.5-37.37h0c-16.51-22.72-24.79-34.12-36.49-54.74-14.77-26.04-26.44-46.61-36.61-74.7-11.85-32.73-24.11-66.57-19.93-111.21,5.23-55.91,33.52-95.46,45.44-109.86,31.77-38.41,70.12-56.24,96.69-64.44,25.67-7.92,77.13-17.87,133.41,4.45,38.39,15.22,69.96,41.32,93.83,77.58,28.06,42.63,32.89,84.9,33.67,101.09,1.79,37.37-7.07,73.83-26.32,108.37-13.39,24.02-27.95,38.91-56.95,68.59-9.92,10.15-26.26,25.94-47.75,43.52-24.93,20.39-49.17,35.11-65.12,43.86-14.71,8.08-30.18,15.66-46.07,15.66ZM553.34,427.49c-22.64,0-41.57,4.31-53.82,8.09-23.28,7.18-56.86,22.79-84.65,56.39-10.42,12.6-35.16,47.19-39.74,96.09-3.65,38.99,7.13,68.74,18.53,100.23,9.45,26.08,20.65,45.83,34.83,70.84,10.99,19.38,19,30.4,34.95,52.35h0c4.73,6.5,14.56,20.04,31.19,31.28,4.99,3.37,6.69,4.48,9.29,5.35,9.12,3.05,19.78.05,40.73-11.45,15.01-8.24,37.83-22.09,61.27-41.27,20.59-16.84,36.2-31.93,45.67-41.61,27.44-28.07,41.21-42.15,52.95-63.22,16.91-30.35,24.7-62.25,23.14-94.84-.67-14.12-4.9-50.98-29.53-88.38-20.95-31.83-48.55-54.69-82.02-67.96-22.35-8.86-43.87-11.88-62.8-11.88Z"/>
        <path class="cls-1" d="M510.77,875.79h0c-5.25,0-10.39-.83-15.27-2.46-6.18-2.06-10.19-4.78-15.75-8.54-20.5-13.85-32.63-30.54-37.81-37.67-16.56-22.8-24.85-34.21-36.57-54.88-14.8-26.1-26.49-46.71-36.7-74.9-11.9-32.86-24.21-66.84-20.01-111.77,5.26-56.26,33.73-96.06,45.72-110.56,31.97-38.65,70.56-56.6,97.3-64.84,25.83-7.97,77.61-17.98,134.26,4.48,38.64,15.32,70.41,41.59,94.43,78.06,28.24,42.9,33.1,85.44,33.87,101.74,1.8,37.62-7.11,74.31-26.48,109.05-13.47,24.17-28.07,39.11-57.16,68.86-9.94,10.17-26.32,26-47.86,43.61-25.01,20.45-49.32,35.21-65.31,43.99-13.94,7.65-30.19,15.82-46.68,15.82ZM553.38,403.47c-25.66,0-47.08,4.87-60.94,9.15-26.41,8.15-64.51,25.87-96.08,64.03-11.84,14.32-39.95,53.62-45.15,109.17-4.15,44.35,8.06,78.06,19.86,110.66,10.14,27.98,21.78,48.51,36.51,74.5,11.66,20.56,19.92,31.93,36.38,54.59,5.14,7.08,17.09,23.51,37.21,37.11,5.39,3.64,9.28,6.28,15.13,8.23,4.62,1.55,9.49,2.33,14.46,2.33,15.88,0,31.79-8,45.45-15.5,15.9-8.73,40.06-23.4,64.92-43.73,21.45-17.54,37.75-33.29,47.65-43.42,28.93-29.59,43.44-44.44,56.75-68.32,19.13-34.32,27.93-70.55,26.16-107.68-.77-16.09-5.56-58.08-33.46-100.45-23.72-36.03-55.09-61.96-93.23-77.09-25.53-10.12-50.07-13.56-71.62-13.56ZM510.88,850.5c-2.62,0-5.03-.41-7.36-1.18-2.76-.92-4.5-2.06-9.6-5.5-16.83-11.37-26.75-25.03-31.51-31.59-15.98-21.99-24-33.03-35.03-52.47-14.21-25.06-25.44-44.85-34.92-71.03-11.46-31.63-22.28-61.51-18.6-100.79,4.61-49.26,29.53-84.09,40.03-96.79,27.99-33.84,61.81-49.56,85.26-56.79,12.05-3.72,31.22-8.14,54.2-8.14s43.24,4.03,63.27,11.97c33.72,13.37,61.51,36.4,82.62,68.45,24.8,37.66,29.05,74.81,29.73,89.03,1.57,32.82-6.27,64.96-23.3,95.52-11.83,21.22-25.64,35.34-53.15,63.49-9.5,9.72-25.14,24.83-45.78,41.72-23.53,19.24-46.41,33.13-61.47,41.4-16.1,8.84-26.27,12.72-34.39,12.72ZM553.34,428.77c-22.65,0-41.57,4.37-53.44,8.03-23.11,7.13-56.45,22.63-84.04,55.98-10.35,12.51-34.91,46.84-39.45,95.39-3.62,38.7,7.1,68.32,18.46,99.68,9.41,25.98,20.59,45.69,34.74,70.64,10.96,19.32,18.95,30.32,34.87,52.23,4.69,6.45,14.42,19.86,30.88,30.98,4.87,3.29,6.53,4.38,8.98,5.19,8.73,2.92,19.12-.05,39.71-11.36,14.96-8.21,37.7-22.02,61.08-41.13,20.55-16.81,36.12-31.85,45.57-41.52,27.36-27.99,41.08-42.03,52.75-62.95,16.8-30.14,24.53-61.81,22.98-94.15-.67-14.01-4.87-50.6-29.32-87.74-20.81-31.6-48.2-54.31-81.42-67.48-19.73-7.82-40.7-11.79-62.33-11.79Z"/>
      </g>
      <g>
        <path class="cls-1" d="M510.77,878.05h0c-5.49,0-10.87-.87-15.99-2.58-6.47-2.16-10.81-5.1-16.3-8.81-20.84-14.09-33.13-31-38.38-38.22-16.58-22.82-24.91-34.28-36.7-55.08-14.86-26.19-26.59-46.88-36.86-75.25-11.99-33.1-24.38-67.32-20.13-112.75,5.32-56.89,34.11-97.13,46.23-111.79,32.33-39.08,71.35-57.23,98.38-65.57,26.11-8.05,78.48-18.17,135.77,4.54,39.08,15.5,71.21,42.05,95.49,78.92,28.54,43.35,33.46,86.38,34.25,102.87,1.82,38.05-7.19,75.14-26.76,110.26-13.62,24.44-28.29,39.45-57.52,69.34-9.98,10.21-26.41,26.09-48.04,43.78-25.14,20.56-49.58,35.4-65.66,44.22-14.19,7.79-30.75,16.1-47.77,16.1ZM553.38,405.73c-25.37,0-46.56,4.82-60.27,9.05-26.11,8.05-63.79,25.58-95.01,63.31-11.71,14.16-39.5,53.01-44.64,107.93-4.1,43.84,8.02,77.3,19.74,109.66,10.07,27.81,21.67,48.27,36.36,74.16,11.61,20.46,19.85,31.81,36.28,54.42,5.03,6.92,16.8,23.13,36.61,36.52,5.44,3.68,9.03,6.1,14.58,7.96,4.45,1.49,8.95,2.21,13.74,2.21,15.34,0,30.94-7.86,44.36-15.22,15.81-8.68,39.86-23.28,64.58-43.5,21.37-17.48,37.61-33.17,47.46-43.25,28.78-29.44,43.23-44.22,56.39-67.83,18.92-33.95,27.63-69.77,25.87-106.47-.76-15.91-5.51-57.42-33.09-99.31-23.46-35.63-54.47-61.28-92.18-76.23-25.23-10-49.48-13.4-70.79-13.4ZM510.87,852.77c-2.87,0-5.5-.45-8.07-1.31-3.03-1.01-4.98-2.28-10.15-5.77-17.16-11.6-27.23-25.47-32.07-32.13-16.04-22.07-24.08-33.14-35.16-52.69-14.26-25.15-25.53-45.01-35.08-71.38-11.55-31.89-22.45-61.99-18.73-101.77,4.67-49.89,29.91-85.16,40.54-98.02,28.35-34.27,62.6-50.19,86.34-57.51,12.19-3.76,31.61-8.24,54.87-8.24s43.81,4.08,64.11,12.13c34.16,13.54,62.31,36.86,83.67,69.31,25.1,38.13,29.42,75.76,30.11,90.16,1.59,33.25-6.35,65.8-23.59,96.73-11.97,21.48-25.85,35.67-53.49,63.96-9.55,9.77-25.26,24.95-45.98,41.89-23.65,19.35-46.67,33.32-61.81,41.63-16.44,9.02-26.96,13.01-35.49,13.01ZM553.34,431.04c-22.37,0-41.05,4.31-52.77,7.93-22.82,7.04-55.73,22.34-82.96,55.26-10.21,12.35-34.46,46.24-38.94,94.16-3.57,38.2,7.07,67.58,18.33,98.68,9.35,25.82,20.49,45.45,34.58,70.3,10.89,19.2,18.85,30.16,34.71,51.99,4.62,6.37,14.2,19.55,30.33,30.45,5.07,3.43,6.36,4.23,8.43,4.92,8.03,2.69,17.95-.24,37.9-11.19,14.88-8.17,37.5-21.9,60.74-40.9,20.47-16.74,35.98-31.72,45.38-41.35,27.22-27.85,40.88-41.82,52.39-62.47,16.59-29.76,24.22-61.03,22.7-92.94-.66-13.82-4.8-49.94-28.95-86.6-20.55-31.21-47.59-53.62-80.36-66.62-19.46-7.72-40.15-11.63-61.5-11.63Z"/>
        <path class="cls-1" d="M510.77,879.33h0c-5.63,0-11.14-.89-16.4-2.64-6.64-2.22-11.04-5.19-16.61-8.96-21.03-14.22-33.41-31.26-38.7-38.53-16.6-22.85-24.94-34.32-36.78-55.2-14.88-26.24-26.64-46.96-36.95-75.44-12.04-33.24-24.48-67.6-20.2-113.3,5.35-57.24,34.32-97.74,46.52-112.49,32.53-39.33,71.79-57.58,98.99-65.97,26.28-8.1,78.96-18.29,136.62,4.57,39.33,15.6,71.66,42.31,96.08,79.41,28.72,43.63,33.66,86.92,34.45,103.52,1.83,38.29-7.22,75.61-26.92,110.95-13.71,24.59-28.42,39.64-57.72,69.61-10,10.23-26.47,26.15-48.15,43.88-25.21,20.62-49.72,35.5-65.85,44.36-14.33,7.86-31.06,16.26-48.39,16.26ZM553.39,399.93c-26.1,0-47.89,4.95-61.99,9.3-26.87,8.29-65.64,26.32-97.77,65.16-12.05,14.57-40.66,54.57-45.95,111.1-4.22,45.14,8.12,79.22,20.05,112.19,10.25,28.29,21.95,48.93,36.77,75.06,11.77,20.76,20.08,32.19,36.63,54.96,5.21,7.17,17.4,23.95,38.06,37.92,5.41,3.66,9.68,6.54,15.99,8.65,4.99,1.67,10.23,2.51,15.59,2.51,16.72,0,33.11-8.23,47.16-15.94,16.03-8.8,40.4-23.6,65.46-44.09,21.58-17.65,37.98-33.5,47.94-43.69,29.14-29.81,43.77-44.78,57.32-69.07,19.46-34.91,28.41-71.78,26.6-109.58-.78-16.38-5.67-59.13-34.04-102.23-24.13-36.65-56.05-63.04-94.89-78.44-26-10.31-50.98-13.81-72.92-13.81ZM510.77,872.24c-4.93,0-9.56-.74-14.15-2.28-5.72-1.91-9.37-4.38-14.89-8.11-19.99-13.51-31.86-29.84-36.93-36.82-16.46-22.64-24.72-34.01-36.36-54.54-14.73-25.98-26.35-46.46-36.45-74.36-11.77-32.5-23.94-66.1-19.81-110.22,5.17-55.28,33.14-94.39,44.92-108.63,31.42-37.98,69.34-55.61,95.62-63.72,13.47-4.15,34.92-9.11,60.65-9.11s48.68,4.54,71.26,13.5c37.95,15.05,69.17,40.86,92.77,76.71,27.75,42.15,32.53,83.94,33.3,99.96,1.77,36.95-6.99,73-26.03,107.16-13.25,23.77-27.74,38.59-56.6,68.11-9.86,10.1-26.13,25.81-47.56,43.35-24.79,20.28-48.91,34.92-64.77,43.63-13.55,7.44-29.32,15.38-44.97,15.38ZM553.38,407.01c-25.41,0-46.6,4.89-59.9,8.99-25.95,8-63.38,25.41-94.4,62.9-11.63,14.06-39.24,52.66-44.35,107.24-4.08,43.55,7.99,76.88,19.66,109.1,10.03,27.7,21.6,48.1,36.24,73.92,11.61,20.46,19.84,31.78,36.23,54.34,4.99,6.87,16.68,22.95,36.3,36.21,5.35,3.62,8.88,6,14.26,7.8,4.32,1.44,8.68,2.15,13.34,2.15,15.05,0,30.47-7.78,43.74-15.07,15.77-8.66,39.74-23.21,64.38-43.37,21.35-17.46,37.53-33.1,47.35-43.15,28.7-29.36,43.11-44.09,56.19-67.56,18.8-33.73,27.45-69.33,25.71-105.79-.76-15.8-5.48-57.05-32.88-98.67-23.31-35.41-54.12-60.89-91.58-75.74-22.28-8.84-45.94-13.32-70.32-13.32ZM510.87,854.05c-2.94,0-5.71-.45-8.47-1.37-3.19-1.07-5.18-2.36-10.46-5.93-17.34-11.72-27.51-25.71-32.39-32.44-16.06-22.09-24.12-33.18-35.25-52.81-14.3-25.22-25.59-45.11-35.17-71.57-11.6-32.02-22.55-62.26-18.8-102.33,4.7-50.23,30.11-85.77,40.82-98.72,28.55-34.51,63.04-50.54,86.95-57.92,12.28-3.79,31.83-8.3,55.24-8.3s44.13,4.11,64.58,12.22c34.4,13.64,62.76,37.13,84.27,69.8,25.28,38.4,29.62,76.3,30.31,90.8,1.6,33.49-6.39,66.27-23.75,97.42-12.06,21.63-25.97,35.87-53.7,64.23-9.57,9.79-25.33,25.02-46.08,41.99-23.73,19.41-46.82,33.42-62.01,41.76-17.03,9.35-27.49,13.17-36.1,13.17ZM553.34,425.23c-23.1,0-42.38,4.45-54.49,8.19-23.58,7.27-57.59,23.08-85.73,57.11-10.56,12.76-35.62,47.8-40.25,97.32-3.7,39.49,7.16,69.47,18.65,101.22,9.51,26.26,20.75,46.07,34.97,71.15,11.08,19.53,19.11,30.58,35.11,52.6,4.8,6.61,14.79,20.36,31.76,31.82,5.06,3.42,6.96,4.66,9.84,5.62,2.49.83,5,1.24,7.66,1.24,8.14,0,18.25-3.72,34.87-12.85,15.09-8.29,38.04-22.21,61.62-41.5,20.66-16.9,36.35-32.06,45.87-41.8,27.57-28.2,41.4-42.35,53.29-63.69,17.12-30.72,25-63.04,23.43-96.05-.68-14.3-4.96-51.64-29.9-89.52-21.22-32.22-49.17-55.38-83.08-68.83-20.15-7.99-41.56-12.04-63.64-12.04ZM510.92,846.95c-2.26,0-4.31-.34-6.27-1-2.22-.74-3.55-1.57-8.74-5.08-16.31-11.02-25.99-24.35-30.64-30.75-15.9-21.88-23.87-32.85-34.79-52.12-14.13-24.9-25.28-44.58-34.67-70.5-11.32-31.26-22-60.76-18.4-99.24,4.52-48.27,28.94-82.42,39.23-94.86,27.43-33.16,60.59-48.57,83.57-55.66,11.81-3.64,30.62-7.99,53.15-7.99s42.35,3.94,61.97,11.72c33.02,13.1,60.26,35.67,80.96,67.1,24.32,36.93,28.49,73.32,29.15,87.25,1.54,32.16-6.15,63.66-22.86,93.63-11.6,20.8-25.3,34.82-52.59,62.74-9.43,9.65-24.98,24.67-45.49,41.44-23.31,19.07-46,32.84-60.93,41.03-15.58,8.56-25.2,12.29-32.64,12.29ZM553.34,432.32c-22.21,0-40.76,4.28-52.4,7.87-22.65,6.99-55.33,22.18-82.35,54.85-10.14,12.26-34.2,45.9-38.65,93.46-3.55,37.91,7.04,67.15,18.25,98.12,9.32,25.74,20.43,45.32,34.5,70.12,10.86,19.14,18.8,30.07,34.63,51.86,4.58,6.3,14.08,19.38,30.02,30.15,4.96,3.35,6.2,4.13,8.12,4.77,7.63,2.55,17.29-.35,36.87-11.1,14.83-8.14,37.38-21.82,60.54-40.77,20.42-16.7,35.89-31.65,45.28-41.25,27.13-27.76,40.75-41.69,52.18-62.2,16.47-29.55,24.05-60.58,22.54-92.26-.65-13.72-4.77-49.56-28.74-85.96-20.4-30.98-47.24-53.23-79.77-66.13-19.31-7.66-39.84-11.54-61.02-11.54Z"/>
      </g>
    </g>
    <g>
      <g>
        <path class="cls-1" d="M510.77,879.01s0,0,0,0c-5.59,0-11.08-.88-16.3-2.63-6.59-2.2-10.98-5.17-16.53-8.92-20.98-14.18-33.34-31.19-38.62-38.46-16.61-22.86-24.94-34.33-36.76-55.17-14.87-26.23-26.62-46.94-36.93-75.39-12.02-33.2-24.46-67.52-20.18-113.16,5.35-57.16,34.27-97.58,46.45-112.31,32.48-39.27,71.68-57.49,98.83-65.87,26.23-8.09,78.83-18.26,136.4,4.56,39.27,15.57,71.54,42.25,95.93,79.28,28.68,43.55,33.61,86.79,34.41,103.35,1.83,38.23-7.22,75.5-26.88,110.78-13.68,24.55-28.38,39.58-57.66,69.54-10,10.23-26.47,26.15-48.12,43.86-25.2,20.61-49.69,35.48-65.8,44.32-14.29,7.85-30.98,16.22-48.23,16.22h0ZM553.38,406.69c-25.25,0-46.34,4.8-59.99,9.01-25.99,8.02-63.49,25.45-94.55,63.01-11.65,14.09-39.31,52.75-44.42,107.41-4.08,43.63,8,77,19.69,109.26,10.04,27.73,21.63,48.16,36.29,74.02,11.57,20.4,19.8,31.73,36.21,54.31,5.01,6.89,16.71,23.01,36.38,36.3,5.37,3.63,8.92,6.03,14.35,7.84,4.36,1.46,8.75,2.16,13.44,2.16h0c15.12,0,30.59-7.8,43.9-15.11,15.78-8.66,39.77-23.22,64.43-43.4,21.33-17.45,37.54-33.11,47.38-43.18,28.73-29.39,43.14-44.13,56.24-67.63,18.83-33.79,27.5-69.44,25.75-105.96-.76-15.83-5.48-57.14-32.93-98.83-23.35-35.46-54.21-60.99-91.73-75.87-25.1-9.95-49.24-13.34-70.44-13.34ZM510.86,853.73c-2.96,0-5.7-.47-8.37-1.36-3.15-1.05-5.13-2.33-10.38-5.89-17.29-11.69-27.44-25.65-32.31-32.36-16.05-22.09-24.11-33.18-35.22-52.78-14.29-25.19-25.57-45.09-35.15-71.52-11.58-31.98-22.52-62.19-18.78-102.18,4.69-50.14,30.06-85.61,40.75-98.54,28.5-34.45,62.93-50.46,86.79-57.82,12.26-3.78,31.77-8.29,55.15-8.29s44.05,4.1,64.46,12.19c34.34,13.62,62.65,37.06,84.12,69.67,25.24,38.33,29.57,76.16,30.26,90.64,1.6,33.43-6.38,66.15-23.71,97.24-12.04,21.59-25.95,35.82-53.66,64.17-9.55,9.77-25.29,24.98-46.04,41.95-23.71,19.39-46.78,33.39-61.96,41.73-16.58,9.1-27.25,13.13-35.95,13.13ZM553.34,431.99c-22.25,0-40.83,4.29-52.49,7.89-22.69,7-55.43,22.22-82.51,54.95-10.16,12.28-34.27,45.99-38.73,93.64-3.55,37.99,7.05,67.27,18.28,98.28,9.32,25.72,20.43,45.32,34.51,70.14,10.87,19.17,18.83,30.11,34.67,51.93,4.58,6.3,14.1,19.41,30.08,30.2,4.99,3.37,6.24,4.15,8.2,4.81,7.65,2.56,17.71-.46,37.14-11.12,14.85-8.15,37.41-21.85,60.59-40.8,20.43-16.71,35.91-31.67,45.3-41.28,27.16-27.78,40.79-41.72,52.24-62.26,16.5-29.6,24.1-60.7,22.58-92.43-.66-13.74-4.78-49.65-28.79-86.12-20.44-31.04-47.33-53.33-79.92-66.26-19.35-7.67-39.92-11.56-61.14-11.56Z"/>
        <path class="cls-1" d="M510.76,880.29c-5.73,0-11.34-.91-16.69-2.69-6.75-2.26-11.21-5.26-16.84-9.07-21.18-14.31-33.62-31.45-38.94-38.77-16.64-22.89-24.99-34.38-36.84-55.29-14.91-26.29-26.68-47.04-37.02-75.59-12.07-33.33-24.55-67.79-20.26-113.72,5.38-57.52,34.48-98.19,46.74-113.01,32.68-39.51,72.12-57.85,99.44-66.28,26.4-8.14,79.32-18.37,137.25,4.6,39.52,15.67,72,42.51,96.53,79.77,28.85,43.82,33.82,87.32,34.61,104,1.84,38.47-7.26,75.97-27.04,111.46-13.76,24.7-28.5,39.77-57.87,69.81-10.03,10.26-26.54,26.22-48.23,43.95-25.28,20.67-49.84,35.58-66,44.45-14.43,7.92-31.29,16.37-48.84,16.37h-.01ZM553.39,398.97c-26.22,0-48.11,4.98-62.27,9.35-26.99,8.33-65.94,26.44-98.23,65.46-12.11,14.64-40.85,54.81-46.16,111.62-4.24,45.35,8.14,79.54,20.11,112.61,10.27,28.34,21.99,49.01,36.83,75.18,11.79,20.8,20.12,32.25,36.69,55.06,5.24,7.21,17.5,24.09,38.3,38.15,5.47,3.7,9.8,6.62,16.22,8.77,5.09,1.7,10.43,2.56,15.88,2.56h.01c16.95,0,33.46-8.29,47.61-16.06,16.06-8.82,40.48-23.64,65.61-44.19,21.6-17.66,38.03-33.54,48.02-43.76,29.21-29.87,43.86-44.87,57.46-69.27,19.55-35.07,28.54-72.11,26.72-110.09-.79-16.46-5.7-59.42-34.2-102.71-24.23-36.81-56.31-63.32-95.33-78.8-26.13-10.36-51.23-13.88-73.27-13.88ZM510.77,871.28c-4.83,0-9.36-.73-13.85-2.23-5.59-1.87-9.2-4.31-14.66-8-19.85-13.42-31.65-29.66-36.7-36.6-16.44-22.62-24.68-33.97-36.29-54.44-14.7-25.92-26.31-46.38-36.38-74.21-11.73-32.39-23.87-65.89-19.76-109.81,5.15-55.02,32.98-93.94,44.71-108.11,31.26-37.8,69.01-55.35,95.16-63.41,13.4-4.13,34.75-9.06,60.37-9.06s48.44,4.52,70.91,13.43c37.77,14.98,68.83,40.66,92.33,76.35,27.63,41.97,32.38,83.55,33.14,99.48,1.76,36.76-6.96,72.65-25.91,106.65-13.18,23.64-27.63,38.43-56.43,67.89-9.89,10.12-26.15,25.83-47.51,43.29-24.74,20.24-48.8,34.84-64.63,43.53-13.45,7.38-29.1,15.26-44.52,15.26ZM553.38,407.97c-25.3,0-46.38,4.87-59.61,8.95-25.82,7.96-63.08,25.29-93.94,62.6-11.58,13.99-39.05,52.41-44.14,106.72-4.06,43.35,7.98,76.58,19.61,108.7,10.01,27.63,21.56,48,36.19,73.8,11.55,20.36,19.77,31.67,36.14,54.21,4.97,6.83,16.59,22.83,36.06,35.99,5.28,3.57,8.78,5.93,14.03,7.69,4.22,1.41,8.49,2.1,13.04,2.1,14.81,0,30.11-7.72,43.29-14.95,15.73-8.64,39.64-23.15,64.24-43.27,21.26-17.39,37.45-33.03,47.28-43.08,28.65-29.31,43.03-44.02,56.04-67.36,18.72-33.58,27.33-69,25.59-105.28-.75-15.72-5.44-56.75-32.72-98.19-23.2-35.24-53.86-60.6-91.13-75.38-22.17-8.79-45.7-13.25-69.96-13.25ZM510.86,855.01c-3.04,0-5.91-.47-8.77-1.42-3.31-1.1-5.33-2.41-10.69-6.04-17.48-11.81-27.71-25.9-32.63-32.67-16.08-22.13-24.15-33.24-35.3-52.9-14.32-25.24-25.62-45.17-35.23-71.72-11.64-32.12-22.63-62.46-18.86-102.74,4.73-50.51,30.28-86.22,41.04-99.23,28.7-34.69,63.37-50.81,87.4-58.23,12.34-3.81,31.99-8.34,55.53-8.34s44.37,4.13,64.93,12.28c34.59,13.72,63.1,37.32,84.72,70.16,25.41,38.59,29.78,76.69,30.47,91.28,1.61,33.68-6.42,66.63-23.87,97.93-12.12,21.74-26.07,36.01-53.86,64.45-9.58,9.8-25.37,25.05-46.15,42.05-23.79,19.46-46.93,33.5-62.15,41.86-17.19,9.44-27.78,13.29-36.57,13.29ZM553.34,424.27c-23.22,0-42.6,4.48-54.77,8.23-23.7,7.31-57.89,23.2-86.18,57.41-10.61,12.83-35.8,48.04-40.47,97.84-3.72,39.71,7.18,69.79,18.71,101.63,9.54,26.34,20.8,46.19,35.05,71.33,11.08,19.54,19.12,30.6,35.14,52.65,4.84,6.66,14.9,20.5,32,32.06,5.15,3.48,7.08,4.73,10.07,5.73,2.6.87,5.2,1.29,7.96,1.29,8.32,0,18.56-3.76,35.34-12.97,15.13-8.3,38.12-22.26,61.76-41.6,20.69-16.92,36.4-32.1,45.94-41.86,27.64-28.27,41.51-42.46,53.46-63.9,17.21-30.88,25.13-63.36,23.55-96.56-.69-14.38-4.99-51.94-30.06-90-21.32-32.39-49.42-55.67-83.52-69.19-20.26-8.03-41.78-12.1-63.99-12.1ZM510.8,845.97c-2.12,0-4.05-.31-5.86-.92-2.1-.7-3.4-1.51-8.51-4.96-16.17-10.93-25.78-24.16-30.39-30.51-15.87-21.85-23.84-32.81-34.75-52.05-14.1-24.87-25.25-44.51-34.6-70.34-11.28-31.15-21.93-60.56-18.36-98.84,4.49-48.01,28.78-81.96,39.01-94.34,27.29-32.98,60.26-48.31,83.12-55.36,11.75-3.62,30.45-7.94,52.87-7.94s42.12,3.92,61.61,11.65c32.84,13.02,59.93,35.48,80.52,66.74,24.18,36.73,28.34,72.91,29,86.77,1.53,31.97-6.12,63.3-22.74,93.12-11.53,20.69-25.2,34.68-52.44,62.54-9.41,9.63-24.94,24.63-45.41,41.37-23.25,19.01-45.89,32.76-60.78,40.94-15.33,8.41-24.99,12.13-32.3,12.13ZM553.34,433.27c-22.1,0-40.54,4.26-52.12,7.83-22.53,6.95-55.02,22.05-81.9,54.55-10.08,12.19-34.01,45.64-38.44,92.94-3.53,37.7,7.03,66.86,18.21,97.72,9.28,25.62,20.37,45.18,34.42,69.95,10.84,19.11,18.78,30.04,34.6,51.8,4.53,6.24,13.96,19.22,29.76,29.9,4.87,3.29,6.08,4.05,7.88,4.65,7.26,2.43,17.05-.56,36.12-11.03,14.8-8.13,37.29-21.78,60.39-40.67,20.38-16.67,35.83-31.59,45.2-41.18,27.08-27.7,40.67-41.6,52.03-61.99,16.38-29.39,23.92-60.26,22.42-91.75-.65-13.64-4.74-49.27-28.58-85.48-20.29-30.82-46.98-52.95-79.32-65.77-19.2-7.61-39.61-11.47-60.67-11.47Z"/>
      </g>
      <g>
        <path class="cls-1" d="M510.76,882.55c-5.98,0-11.83-.95-17.41-2.81-7.05-2.35-11.84-5.59-17.39-9.34-21.52-14.54-34.13-31.9-39.51-39.32-16.68-22.96-25.06-34.49-36.98-55.5-14.96-26.37-26.77-47.2-37.18-75.93-12.16-33.57-24.73-68.27-20.38-114.7,5.44-58.14,34.85-99.26,47.25-114.24,33.04-39.94,72.9-58.48,100.52-67,26.68-8.23,80.17-18.57,138.75,4.66,39.96,15.84,72.79,42.97,97.58,80.63,29.16,44.29,34.18,88.28,34.98,105.13,1.86,38.9-7.33,76.8-27.32,112.67-13.92,24.97-28.72,40.11-58.23,70.29-10.06,10.29-26.62,26.3-48.41,44.12-25.41,20.78-50.1,35.77-66.34,44.69-14.67,8.06-31.85,16.65-49.94,16.65h0ZM553.39,401.23c-25.94,0-47.59,4.93-61.6,9.25-26.7,8.24-65.22,26.15-97.15,64.74-11.97,14.48-40.39,54.21-45.65,110.38-4.2,44.85,8.1,78.79,19.99,111.62,10.2,28.17,21.89,48.77,36.68,74.85,11.72,20.67,20.02,32.09,36.55,54.83,5.17,7.11,17.26,23.77,37.74,37.6,5.54,3.75,9.54,6.45,15.67,8.5,4.85,1.62,9.95,2.44,15.16,2.44h0c16.41,0,32.62-8.15,46.52-15.78,15.98-8.77,40.27-23.52,65.26-43.96,21.54-17.61,37.9-33.43,47.83-43.59,29.06-29.73,43.65-44.65,57.1-68.79,19.34-34.69,28.23-71.33,26.43-108.88-.78-16.27-5.63-58.75-33.82-101.57-23.98-36.42-55.69-62.64-94.28-77.94-25.82-10.24-50.64-13.72-72.44-13.72ZM510.76,873.55c-5.07,0-9.83-.77-14.56-2.35-5.89-1.97-9.8-4.61-15.21-8.27-20.18-13.64-32.15-30.11-37.26-37.15-16.5-22.71-24.76-34.09-36.43-54.65-14.75-26-26.4-46.54-36.54-74.56-11.82-32.63-24.04-66.37-19.88-110.8,5.21-55.65,33.36-95.01,45.22-109.34,31.62-38.23,69.79-55.98,96.24-64.13,13.55-4.18,35.14-9.16,61.03-9.16s49.01,4.57,71.75,13.59c38.21,15.15,69.63,41.13,93.38,77.21,27.93,42.43,32.74,84.5,33.51,100.61,1.78,37.19-7.04,73.48-26.2,107.86-13.33,23.91-27.86,38.77-56.8,68.38-9.9,10.13-26.21,25.89-47.67,43.45-24.87,20.34-49.06,35.03-64.97,43.76-13.7,7.52-29.65,15.54-45.61,15.54h0ZM553.38,410.23c-25.01,0-45.86,4.81-58.94,8.85-25.53,7.87-62.36,25-92.87,61.88-11.44,13.83-38.6,51.8-43.63,105.49-4.01,42.84,7.94,75.82,19.49,107.72,9.94,27.45,21.46,47.76,36.04,73.47,11.47,20.21,19.65,31.49,35.97,53.94,4.92,6.77,16.38,22.54,35.53,35.48,5.31,3.59,8.52,5.76,13.48,7.42,3.99,1.33,8.01,1.98,12.31,1.98h0c14.28,0,29.27-7.57,42.19-14.67,15.65-8.59,39.44-23.04,63.9-43.04,21.21-17.35,37.32-32.91,47.09-42.91,28.51-29.16,42.81-43.8,55.68-66.88,18.51-33.2,27.02-68.22,25.31-104.07-.74-15.54-5.38-56.09-32.35-97.05-22.94-34.84-53.25-59.92-90.07-74.52-21.9-8.68-45.16-13.09-69.13-13.09ZM510.86,857.27c-3.29,0-6.39-.5-9.49-1.54-3.62-1.21-5.93-2.72-11.24-6.31-17.81-12.03-28.2-26.34-33.2-33.21-16.13-22.19-24.22-33.33-35.44-53.11-14.37-25.33-25.72-45.34-35.4-72.07-11.72-32.37-22.79-62.94-18.98-103.72,4.78-51.13,30.65-87.29,41.55-100.47,29.06-35.13,64.15-51.44,88.48-58.95,12.49-3.85,32.37-8.44,56.19-8.44s44.94,4.19,65.77,12.44c35.03,13.89,63.89,37.79,85.77,71.02,25.72,39.06,30.14,77.65,30.84,92.42,1.63,34.11-6.5,67.46-24.15,99.14-12.27,22.01-26.29,36.36-54.22,64.93-9.62,9.84-25.46,25.15-46.33,42.22-23.91,19.56-47.18,33.68-62.49,42.09-17.55,9.64-28.47,13.57-37.66,13.57ZM553.34,426.54c-22.93,0-42.08,4.42-54.1,8.13-23.4,7.22-57.16,22.91-85.11,56.69-10.48,12.67-35.35,47.44-39.95,96.61-3.67,39.2,7.14,69.05,18.58,100.65,9.48,26.16,20.7,45.94,34.9,70.98,11.02,19.43,19.04,30.47,35.01,52.44,4.76,6.55,14.66,20.17,31.43,31.51,5.07,3.43,6.8,4.55,9.52,5.46,2.36.79,4.73,1.17,7.24,1.17,7.8,0,18.04-3.8,34.25-12.69,15.05-8.26,37.92-22.15,61.42-41.36,20.62-16.86,36.26-31.98,45.75-41.69,27.49-28.12,41.29-42.24,53.1-63.42,17-30.5,24.83-62.58,23.26-95.35-.68-14.19-4.93-51.26-29.68-88.86-21.06-31.99-48.81-54.98-82.46-68.33-19.99-7.93-41.24-11.94-63.15-11.94ZM510.9,848.26c-2.39,0-4.58-.37-6.67-1.07-2.48-.83-4.15-1.92-9.06-5.23-16.49-11.15-26.26-24.59-30.96-31.05-15.95-21.95-23.93-32.94-34.89-52.27-14.16-24.97-25.34-44.68-34.76-70.68-11.37-31.39-22.11-61.04-18.48-99.82,4.55-48.63,29.16-83.04,39.52-95.57,27.64-33.41,61.04-48.94,84.2-56.08,11.9-3.67,30.84-8.04,53.54-8.04s42.68,3.97,62.45,11.81c33.28,13.2,60.73,35.94,81.57,67.6,24.5,37.21,28.7,73.87,29.37,87.9,1.55,32.4-6.2,64.14-23.02,94.33-11.68,20.96-25.42,35.02-52.8,63.02-9.46,9.67-25.04,24.73-45.59,41.54-23.39,19.13-46.15,32.95-61.13,41.17-15.77,8.66-25.6,12.45-33.29,12.45ZM553.34,435.54c-21.81,0-40.02,4.2-51.45,7.73-22.23,6.86-54.3,21.76-80.82,53.83-9.95,12.03-33.56,45.04-37.93,91.71-3.48,37.2,7,66.12,18.09,96.74,9.21,25.44,20.26,44.92,34.25,69.59,10.77,18.99,18.68,29.88,34.43,51.56,4.49,6.18,13.77,18.95,29.23,29.39,4.91,3.32,5.87,3.9,7.33,4.38,6.49,2.17,16.11-.88,34.31-10.87,14.72-8.08,37.08-21.65,60.05-40.44,20.3-16.6,35.68-31.46,45.01-41.01,26.93-27.55,40.45-41.38,51.67-61.51,16.17-29.01,23.62-59.48,22.13-90.54-.64-13.45-4.68-48.6-28.21-84.34-20.03-30.42-46.36-52.26-78.26-64.91-18.93-7.51-39.06-11.31-59.84-11.31Z"/>
        <path class="cls-1" d="M510.77,883.83h0c-6.11,0-12.11-.97-17.81-2.87-7.21-2.41-12.06-5.69-17.68-9.49-21.72-14.67-34.42-32.16-39.84-39.63-16.71-23-25.1-34.54-37.06-55.63-14.98-26.41-26.82-47.28-37.27-76.13-12.21-33.71-24.83-68.55-20.45-115.26,5.47-58.49,35.07-99.87,47.54-114.94,33.25-40.19,73.34-58.84,101.13-67.41,26.84-8.28,80.66-18.68,139.6,4.69,40.21,15.94,73.24,43.23,98.18,81.12,29.33,44.55,34.38,88.81,35.19,105.78,1.87,39.14-7.37,77.28-27.48,113.35-14,25.12-28.85,40.31-58.43,70.56-10.08,10.32-26.69,26.37-48.52,44.22-25.47,20.83-50.24,35.87-66.53,44.82-14.81,8.13-32.16,16.81-50.55,16.81ZM553.39,395.42c-26.67,0-48.93,5.06-63.33,9.51-27.45,8.47-67.07,26.89-99.91,66.59-12.32,14.89-41.56,55.77-46.96,113.55-4.32,46.14,8.2,80.7,20.3,114.13,10.38,28.66,22.17,49.44,37.09,75.75,11.89,20.96,20.25,32.46,36.9,55.38,5.35,7.36,17.86,24.59,39.19,39.01,5.48,3.7,10.2,6.89,17.07,9.19,5.45,1.82,11.17,2.74,17,2.74h0c17.79,0,34.78-8.52,49.32-16.5,16.2-8.89,40.82-23.84,66.14-44.55,21.74-17.78,38.27-33.76,48.31-44.03,29.42-30.09,44.19-45.2,58.03-70.02,19.87-35.65,29.01-73.33,27.16-111.98-.8-16.75-5.79-60.47-34.78-104.49-24.65-37.43-57.28-64.4-96.99-80.14-26.6-10.55-52.14-14.13-74.57-14.13ZM510.77,876.74c-5.35,0-10.59-.84-15.58-2.51-6.3-2.1-10.36-4.85-15.98-8.65-20.65-13.96-32.84-30.73-38.05-37.9-16.57-22.8-24.88-34.24-36.63-54.96-14.83-26.16-26.53-46.79-36.76-75.05-11.94-32.96-24.29-67.04-20.06-112.18,5.29-56.53,33.89-96.51,45.94-111.08,32.13-38.84,70.9-56.87,97.76-65.15,13.76-4.24,35.68-9.31,61.98-9.31s49.8,4.65,72.91,13.81c38.83,15.4,70.75,41.78,94.87,78.42,28.38,43.1,33.25,85.84,34.03,102.22,1.81,37.8-7.14,74.66-26.59,109.56-13.54,24.29-28.17,39.25-57.31,69.06-9.95,10.18-26.34,26.03-47.93,43.69-25.07,20.51-49.43,35.29-65.46,44.09-14.04,7.71-30.42,15.93-47.14,15.94ZM553.38,404.42c-25.74,0-47.19,4.95-60.65,9.11-26.28,8.11-64.21,25.74-95.63,63.73-11.79,14.25-39.76,53.36-44.93,108.65-4.13,44.13,8.04,77.73,19.8,110.23,10.12,27.93,21.74,48.43,36.46,74.38,11.64,20.52,19.9,31.88,36.35,54.53,5.07,6.98,16.95,23.33,36.95,36.84,5.33,3.6,9.18,6.2,14.9,8.11,4.59,1.53,9.22,2.28,14.15,2.28h0c15.66,0,31.43-7.94,44.99-15.39,15.87-8.71,39.99-23.36,64.78-43.63,21.42-17.52,37.69-33.24,47.57-43.35,28.87-29.53,43.36-44.34,56.6-68.11,19.04-34.16,27.8-70.22,26.04-107.17-.76-16.01-5.54-57.8-33.3-99.97-23.61-35.86-54.83-61.68-92.79-76.73-22.59-8.95-46.56-13.5-71.27-13.5ZM510.77,867.74c-4.44,0-8.6-.67-12.72-2.05-5.14-1.71-8.4-3.92-13.8-7.57-19.33-13.06-30.9-28.98-35.84-35.78-16.36-22.52-24.56-33.8-36.05-54.07-14.61-25.76-26.15-46.1-36.13-73.67-11.6-32.02-23.6-65.14-19.56-108.28,5.06-54.03,32.39-92.26,43.91-106.18,30.71-37.12,67.78-54.36,93.48-62.29,13.17-4.06,34.14-8.9,59.32-8.9s47.56,4.43,69.6,13.18c37.08,14.7,67.58,39.94,90.67,75.01,27.15,41.23,31.81,82.06,32.56,97.7,1.73,36.09-6.84,71.34-25.47,104.75-12.95,23.24-27.3,37.91-55.88,67.15-9.8,10.02-25.94,25.62-47.2,43.01-24.53,20.06-48.39,34.55-64.09,43.17-13.06,7.17-28.22,14.83-42.81,14.83ZM553.38,411.51c-24.86,0-45.57,4.78-58.56,8.79-25.36,7.82-61.95,24.84-92.26,61.47-11.37,13.74-38.35,51.47-43.34,104.79-3.98,42.57,7.91,75.41,19.42,107.17,9.91,27.37,21.4,47.63,35.95,73.28,11.42,20.14,19.59,31.38,35.86,53.78,4.9,6.74,16.28,22.4,35.24,35.21,5.22,3.53,8.37,5.66,13.17,7.26,3.85,1.29,7.75,1.91,11.9,1.91,13.99,0,28.8-7.49,41.59-14.51,15.6-8.57,39.32-22.97,63.7-42.91,21.17-17.31,37.23-32.84,46.99-42.82,28.42-29.07,42.69-43.67,55.48-66.61,18.39-32.99,26.85-67.77,25.15-103.38-.74-15.43-5.35-55.71-32.14-96.41-22.79-34.62-52.9-59.53-89.48-74.03-21.75-8.62-44.85-13-68.66-13ZM510.86,858.55c-3.42,0-6.66-.52-9.89-1.61-3.79-1.27-6.14-2.8-11.56-6.47-18-12.16-28.48-26.59-33.51-33.52-16.17-22.25-24.27-33.4-35.51-53.24-14.4-25.38-25.77-45.43-35.49-72.26-11.78-32.52-22.89-63.21-19.05-104.28,4.82-51.49,30.86-87.9,41.84-101.17,29.26-35.37,64.59-51.8,89.09-59.35,12.57-3.88,32.59-8.5,56.57-8.5s45.26,4.22,66.24,12.53c35.28,13.99,64.34,38.05,86.37,71.51,25.89,39.32,30.34,78.18,31.05,93.07,1.64,34.35-6.54,67.94-24.31,99.82-12.35,22.16-26.41,36.54-54.41,65.19-9.65,9.87-25.53,25.22-46.45,42.33-23.99,19.62-47.33,33.79-62.69,42.22-17.76,9.75-28.85,13.72-38.28,13.72ZM553.34,420.73c-23.66,0-43.41,4.56-55.82,8.39-24.16,7.45-59.02,23.66-87.87,58.54-10.82,13.08-36.51,48.99-41.26,99.77-3.79,40.5,7.23,70.93,18.9,103.15,9.65,26.64,20.98,46.61,35.31,71.89,11.18,19.71,19.25,30.82,35.33,52.96,4.98,6.85,15.28,21.03,32.9,32.94,5.21,3.52,7.47,5,10.93,6.16,2.97.99,5.94,1.47,9.08,1.47,8.96,0,19.7-3.88,37.05-13.41,15.26-8.38,38.46-22.46,62.3-41.96,20.82-17.03,36.63-32.31,46.22-42.12,27.86-28.5,41.84-42.79,54.02-64.66,17.54-31.46,25.61-64.59,23.99-98.45-.7-14.67-5.09-52.99-30.64-91.78-21.73-33.01-50.39-56.74-85.18-70.53-20.68-8.2-42.64-12.35-65.29-12.35ZM510.86,851.46c-2.65,0-5.15-.4-7.65-1.24-2.88-.96-4.65-2.11-9.83-5.62-16.96-11.46-26.95-25.21-31.75-31.81-16-22.02-24.03-33.07-35.09-52.57-14.25-25.13-25.48-44.94-34.98-71.18-11.5-31.74-22.35-61.71-18.66-101.2,4.64-49.53,29.69-84.55,40.25-97.31,28.14-34.02,62.14-49.83,85.71-57.1,12.1-3.73,31.37-8.19,54.48-8.19s43.49,4.05,63.62,12.03c33.9,13.44,61.85,36.6,83.06,68.81,24.92,37.86,29.21,75.21,29.89,89.51,1.58,33-6.3,65.31-23.42,96.03-11.89,21.34-25.74,35.49-53.31,63.69-9.51,9.73-25.18,24.88-45.85,41.78-23.56,19.27-46.51,33.2-61.61,41.5-16.41,9.01-26.84,12.85-34.87,12.85ZM553.34,429.73c-22.54,0-41.35,4.34-53.16,7.99-22.99,7.09-56.15,22.51-83.59,55.68-10.29,12.44-34.72,46.59-39.23,94.87-3.6,38.49,7.08,68,18.4,99.25,9.38,25.91,20.54,45.58,34.66,70.48,10.93,19.28,18.91,30.26,34.8,52.14,4.67,6.43,14.35,19.75,30.66,30.78,4.79,3.24,6.42,4.3,8.74,5.08,2.01.67,4.06,1,6.27,1,7.31,0,16.78-3.56,32.68-12.29,14.93-8.2,37.62-21.97,60.93-41.04,20.49-16.76,36.04-31.79,45.49-41.45,27.29-27.91,40.99-41.93,52.6-62.74,16.71-29.98,24.4-61.48,22.86-93.64-.66-13.93-4.84-50.32-29.16-87.26-20.7-31.43-47.94-54.02-80.98-67.12-19.61-7.78-40.47-11.72-61.98-11.72ZM510.77,842.41c-1.73,0-3.28-.24-4.7-.72-1.6-.53-2.6-1.13-7.65-4.54-15.65-10.58-25.04-23.49-29.55-29.7-15.78-21.72-23.7-32.62-34.51-51.68-14.02-24.71-25.09-44.23-34.34-69.78-11.14-30.76-21.67-59.81-18.16-97.3,4.4-47.03,28.19-80.29,38.22-92.41,26.72-32.31,59.03-47.32,81.43-54.23,11.52-3.55,29.86-7.79,51.83-7.79s41.23,3.84,60.31,11.4c32.15,12.75,58.68,34.75,78.86,65.39,23.71,36,27.77,71.43,28.42,84.99,1.5,31.3-6,61.99-22.29,91.22-11.3,20.28-24.86,34.15-51.87,61.78-9.35,9.57-24.77,24.46-45.12,41.11-23.04,18.84-45.48,32.46-60.24,40.57-14.71,8.08-23.99,11.68-30.62,11.68ZM553.34,436.82c-21.65,0-39.72,4.17-51.07,7.67-22.07,6.81-53.89,21.6-80.21,53.42-9.87,11.93-33.3,44.69-37.64,91.01-3.45,36.92,6.97,65.71,18.01,96.19,9.18,25.35,20.21,44.79,34.16,69.39,10.74,18.93,18.63,29.8,34.35,51.44,4.42,6.09,13.63,18.76,28.91,29.09,4.79,3.24,5.71,3.79,7.02,4.23,6.11,2.04,15.44-.98,33.29-10.78,14.67-8.06,36.97-21.59,59.86-40.31,20.27-16.57,35.61-31.4,44.91-40.91,26.86-27.47,40.33-41.26,51.47-61.24,16.06-28.8,23.45-59.03,21.97-89.85-.64-13.35-4.64-48.23-28-83.7-19.88-30.2-46.01-51.87-77.67-64.42-18.78-7.45-38.75-11.22-59.36-11.22Z"/>
      </g>
    </g>
  </g>
</svg>